# xmcd
#
# Track frame offsets:
#	150
#	25245
#	44162
#	64169
#	81407
#	97307
#	113076
#	132515
#	155911
#	173657
#	186035
#	200331
#	218132
#	236806
#
# Disc length: 3433 seconds
#
# Revision: 1
# Processed by: cddbd v1.5.2PL0 Copyright (c) Steve Scherf et al.
# Submitted via: audiograbber 1.83.01
#
DISCID=d40d670e
DTITLE=JJ. Cale and Eric Clapton - The Road to Escondido
DYEAR=2006
DGENRE=Blues
TTITLE0=JJ. Cale and Eric Clapton - Danger
TTITLE1=JJ. Cale and Eric Clapton - Heads In Georgia
TTITLE2=JJ. Cale and Eric Clapton - Missing Person
TTITLE3=JJ. Cale and Eric Clapton - When This War Is Over
TTITLE4=JJ. Cale and Eric Clapton - Sporting Life Blues
TTITLE5=JJ. Cale and Eric Clapton - Dead End Road
TTITLE6=JJ. Cale and Eric Clapton - It's Easy
TTITLE7=JJ. Cale and Eric Clapton - Hard To Thrill
TTITLE8=JJ. Cale and Eric Clapton - Anyway The Wind Blows
TTITLE9=JJ. Cale and Eric Clapton - Three Little Girls
TTITLE10=JJ. Cale and Eric Clapton - Don't Cry Sister
TTITLE11=JJ. Cale and Eric Clapton - Last Will And Testament
TTITLE12=JJ. Cale and Eric Clapton - Who Am I Telling You?
TTITLE13=JJ. Cale and Eric Clapton - Ride The River
EXTD=
EXTT0=
EXTT1=
EXTT2=
EXTT3=
EXTT4=
EXTT5=
EXTT6=
EXTT7=
EXTT8=
EXTT9=
EXTT10=
EXTT11=
EXTT12=
EXTT13=
PLAYORDER=
